<?xml version="1.0" encoding="UTF-8"?>
<svg version="1.1" xmlns="http://www.w3.org/2000/svg" width="1200" height="1200">
<path d="M0 0 C396 0 792 0 1200 0 C1200 396 1200 792 1200 1200 C804 1200 408 1200 0 1200 C0 804 0 408 0 0 Z " fill="#EDEDED" transform="translate(0,0)"/>
<path d="M0 0 C3.83404835 1.43234259 7.29062018 3.20394594 10.83984375 5.23828125 C11.97405762 5.88692139 13.10827148 6.53556152 14.27685547 7.20385742 C15.49718164 7.90654498 16.71739381 8.60943054 17.9375 9.3125 C19.20192869 10.0382666 20.46641503 10.7639328 21.73095703 11.48950195 C31.95586651 17.36486744 42.11969001 23.34105 52.25439453 29.37060547 C55.23715291 31.14073969 58.22541377 32.90131399 61.21484375 34.66015625 C62.23465332 35.26061768 63.25446289 35.8610791 64.30517578 36.47973633 C66.27302116 37.63810999 68.24142394 38.79553739 70.21044922 39.9519043 C71.08588379 40.46793213 71.96131836 40.98395996 72.86328125 41.515625 C74.02790894 42.20060059 74.02790894 42.20060059 75.21606445 42.89941406 C77 44 77 44 78 45 C78.12382075 46.46324659 78.17952008 47.93232287 78.20773315 49.40052795 C78.2278949 50.3516748 78.24805664 51.30282166 78.26882935 52.28279114 C78.29407181 53.86189522 78.29407181 53.86189522 78.31982422 55.47290039 C78.34085205 56.57566315 78.36187988 57.6784259 78.38354492 58.81460571 C78.56771813 69.07668186 78.67455953 79.33998979 78.75568962 89.60335636 C78.81677239 97.16684417 78.91938796 104.72727606 79.07838428 112.28935057 C79.199952 118.27847547 79.24756282 124.26620089 79.27234268 130.25658989 C79.29358953 132.77973193 79.3371382 135.30280366 79.405056 137.82512093 C79.87133272 156.00200447 76.42802041 168.24401162 66.55664444 183.56748772 C64.4179201 186.90959533 62.49509143 190.34770537 60.5625 193.8125 C59.64210938 195.40578125 59.64210938 195.40578125 58.703125 197.03125 C56.53845004 200.80453663 54.45814706 204.62026406 52.38671875 208.4453125 C50.28717655 212.3132015 48.144532 216.15692274 46 220 C41.5095886 215.86583895 38.25466718 211.25090029 34.875 206.1875 C33.71636403 204.47250882 32.55750652 202.75766729 31.3984375 201.04296875 C30.82448242 200.19009277 30.25052734 199.3372168 29.65917969 198.45849609 C27.29572287 194.95643456 24.89927325 191.47757342 22.5 188 C18.4896322 182.17374119 14.49238902 176.33859063 10.5 170.5 C4.68075662 161.99027678 -1.15574869 153.49256138 -7 145 C-13.39462515 135.70766405 -19.7774415 126.40743444 -26.14379883 117.09570312 C-30.21724753 111.13925087 -34.3021706 105.19078474 -38.3984375 99.25 C-40.96608255 95.52174759 -43.49826429 91.77282545 -46 88 C-46.66 88.66 -47.32 89.32 -48 90 C-47.71865923 94.45252346 -46.61268136 97.03938114 -43.875 100.5 C-39.6636697 106.04479266 -35.71927288 111.73664128 -31.8125 117.5 C-30.50132213 119.42970112 -29.19012409 121.35938854 -27.87890625 123.2890625 C-27.22937988 124.24586914 -26.57985352 125.20267578 -25.91064453 126.18847656 C-23.03267579 130.42342265 -20.14236325 134.64987686 -17.25 138.875 C-16.71673096 139.65423828 -16.18346191 140.43347656 -15.6340332 141.23632812 C-11.81798979 146.81041645 -7.99241131 152.37790189 -4.16308594 157.94287109 C-0.0430466 163.9322703 4.06074433 169.93273174 8.1640625 175.93359375 C12.04131815 181.60247227 15.92857746 187.26436567 19.82275391 192.92163086 C22.35431117 196.60100559 24.87943497 200.28467247 27.3984375 203.97265625 C27.97658203 204.81892578 28.55472656 205.66519531 29.15039062 206.53710938 C30.26692648 208.17208204 31.38285196 209.80747177 32.49804688 211.44335938 C35.61169289 216.00248723 38.77470646 220.51910326 42 225 C43.32 223.68 44.64 222.36 46 221 C47.32 222.32 48.64 223.64 50 225 C50.23976563 224.34902344 50.47953125 223.69804687 50.7265625 223.02734375 C52.38704274 219.07988305 54.36708427 215.34270469 56.375 211.5625 C56.8076416 210.74571777 57.2402832 209.92893555 57.68603516 209.08740234 C59.11934438 206.38907951 60.55886594 203.69415134 62 201 C62.52078125 200.02434082 63.0415625 199.04868164 63.578125 198.04345703 C65.17045449 195.06701832 66.77124384 192.09529521 68.375 189.125 C68.87435059 188.19244385 69.37370117 187.2598877 69.88818359 186.29907227 C70.36594238 185.41920654 70.84370117 184.53934082 71.3359375 183.6328125 C71.75407715 182.85824707 72.1722168 182.08368164 72.60302734 181.28564453 C74 179 74 179 78 174 C78 201.39 78 228.78 78 257 C75.03 258.485 75.03 258.485 72 260 C69.45683079 256.35521271 66.91574346 252.70897858 64.375 249.0625 C63.66214844 248.04091797 62.94929688 247.01933594 62.21484375 245.96679688 C58.46125915 240.57747586 54.75719145 235.17245159 51.21337891 229.64233398 C50.08294048 227.85245365 50.08294048 227.85245365 48 227 C47.67 228.32 47.34 229.64 47 231 C45 231 45 231 43.375 229.5 C42.92125 229.005 42.4675 228.51 42 228 C41.51140503 228.90987671 41.51140503 228.90987671 41.01293945 229.83813477 C34.45514951 242.03518939 27.89771479 254.23140643 20.91772461 266.19384766 C17.99301556 271.25333991 15.36704866 276.30577591 13.01953125 281.66015625 C5.08803948 299.15827831 -4.34702244 306.71068039 -21.37939453 315.16015625 C-27.47672556 318.21077782 -33.30794729 321.74233123 -39.1875 325.1875 C-42.24056496 326.93911884 -45.29543625 328.68744707 -48.35302734 330.43115234 C-51.43219141 332.25615772 -54.37348146 334.24557189 -57.2746582 336.34106445 C-59 337 -59 337 -61.07104492 336.29467773 C-64.01442236 334.31913913 -65.90724645 331.55853593 -68 328.75 C-71.8590924 323.69866767 -75.82383618 318.79254171 -80 314 C-83.96907877 309.43070662 -87.79375117 304.78492821 -91.5 300 C-95.75342599 294.50942368 -100.19011356 289.21321567 -104.73486328 283.9621582 C-108.16128361 279.99768193 -111.47162271 275.96174867 -114.72265625 271.8515625 C-117.88416087 267.8929032 -121.09630524 263.97678037 -124.3125 260.0625 C-125.22974854 258.94234497 -125.22974854 258.94234497 -126.16552734 257.79956055 C-127.03685303 256.74055542 -127.03685303 256.74055542 -127.92578125 255.66015625 C-128.70562378 254.71088257 -128.70562378 254.71088257 -129.5012207 253.74243164 C-130.93254293 252.07842338 -132.42667726 250.52926852 -134 249 C-134.66 249.99 -135.32 250.98 -136 252 C-138 251 -140 250 -142 249 C-142.38369751 250.02323364 -142.38369751 250.02323364 -142.77514648 251.06713867 C-144.19284603 254.46176187 -145.86641012 257.68455758 -147.59765625 260.92578125 C-147.94804962 261.58618408 -148.29844299 262.24658691 -148.65945435 262.92700195 C-149.79094202 265.05703758 -150.92647302 267.18488236 -152.0625 269.3125 C-152.63999496 270.39704971 -152.63999496 270.39704971 -153.22915649 271.50350952 C-158.11494455 280.67882836 -163.04789974 289.82022111 -168.203125 298.84765625 C-171.60805739 304.82109198 -174.95851209 310.83214545 -178 317 C-181.65883263 316.42859642 -184.29671504 315.46671653 -187.45703125 313.55078125 C-188.31071289 313.039104 -189.16439453 312.52742676 -190.04394531 312.00024414 C-191.41437988 311.16481079 -191.41437988 311.16481079 -192.8125 310.3125 C-194.78206636 309.12939935 -196.75213711 307.94713806 -198.72265625 306.765625 C-199.74762207 306.14880859 -200.77258789 305.53199219 -201.82861328 304.89648438 C-207.10879211 301.73894557 -212.43009886 298.6524825 -217.75 295.5625 C-224.86578492 291.42765995 -231.95429852 287.25333832 -239 283 C-237.06981362 276.73453168 -234.68437399 270.88824089 -231.8125 265 C-231.00762282 263.32430984 -230.20293912 261.64852674 -229.3984375 259.97265625 C-228.99592773 259.13879395 -228.59341797 258.30493164 -228.17871094 257.44580078 C-226.41423684 253.78455358 -224.67159103 250.1132207 -222.9375 246.4375 C-222.44890503 245.40314819 -222.44890503 245.40314819 -221.95043945 244.34790039 C-219.55329182 239.24542587 -217.26552418 234.09951671 -215 228.9375 C-212.1713346 222.49481323 -209.14187279 216.19284361 -205.94287109 209.92675781 C-203.15588485 204.42456506 -200.66141535 198.81729747 -198.25756836 193.13818359 C-197.0130988 190.21534467 -195.76950375 187.65425562 -194 185 C-193.34 185 -192.68 185 -192 185 C-190.29826295 187.00670785 -188.70450075 189.02488169 -187.125 191.125 C-183.22044667 196.21338067 -179.21269697 201.1637085 -175 206 C-170.55086275 211.12216413 -166.31383773 216.36697613 -162.15991211 221.73022461 C-157.40442772 227.83459979 -152.34579585 233.66624864 -147.27001953 239.50439453 C-146.06881756 240.91895879 -144.92112366 242.37845888 -143.77734375 243.83984375 C-142.18021949 246.0792836 -142.18021949 246.0792836 -140 247 C-139.34 245.68 -138.68 244.36 -138 243 C-136.68 243.99 -135.36 244.98 -134 246 C-132.2701447 242.83370908 -130.5411798 239.66693284 -128.8125 236.5 C-128.27657227 235.51837891 -127.74064453 234.53675781 -127.18847656 233.52539062 C-124.31153896 228.25183891 -121.44273547 222.97410316 -118.58984375 217.6875 C-108.89846069 199.73130547 -108.89846069 199.73130547 -104.625 192.375 C-102.08484604 187.98552893 -99.73990237 183.55011557 -97.5 179 C-94.9713935 173.8634137 -92.2689253 168.88518982 -89.39355469 163.93554688 C-86.06863621 158.18315746 -82.90635592 152.34623704 -79.75 146.5 C-79.19449463 145.47132813 -78.63898926 144.44265625 -78.06665039 143.3828125 C-76.93474235 141.28621567 -75.8029882 139.18953574 -74.67138672 137.09277344 C-72.0621198 132.26452434 -69.43864807 127.4440819 -66.8125 122.625 C-66.32595947 121.72861816 -65.83941895 120.83223633 -65.33813477 119.90869141 C-62.93802699 115.49822662 -60.50334905 111.11394252 -57.9921875 106.765625 C-57.28292114 105.5269165 -57.28292114 105.5269165 -56.55932617 104.26318359 C-55.66895495 102.71315488 -54.76861702 101.16879296 -53.85668945 99.63134766 C-51.58403468 96.00369703 -51.58403468 96.00369703 -51.3527832 91.90283203 C-51.79552838 90.60115119 -52.24054235 89.30024043 -52.6875 88 C-53.09205762 85.41083122 -52.33413341 84.19739621 -51 82 C-49 82 -49 82 -47.375 83.5 C-46.92125 83.995 -46.4675 84.49 -46 85 C-45.58339111 84.21165771 -45.16678223 83.42331543 -44.73754883 82.61108398 C-37.71871535 69.34622977 -30.70360634 56.08992765 -23.25 43.0625 C-17.7996802 33.53477731 -12.67997507 23.85999819 -7.65625 14.1015625 C-5.20143985 9.34536784 -2.6307454 4.6608705 0 0 Z " fill="#00ADB5" transform="translate(703,285)"/>
<path d="M0 0 C4.89944683 1.57152068 9.00914365 4.28147722 13.3125 7.0625 C12.57775408 10.67958501 11.1449426 13.78649764 9.58203125 17.12109375 C9.02580078 18.31283203 8.46957031 19.50457031 7.89648438 20.73242188 C7.30610809 21.98833696 6.71561288 23.24419616 6.125 24.5 C5.553704 25.72054757 4.98273757 26.94124945 4.41210938 28.16210938 C3.98948318 29.06541489 3.98948318 29.06541489 3.55831909 29.98696899 C2.9912893 31.20032533 2.42530804 32.41417223 1.86038208 33.62850952 C0.43992359 36.67735469 -1.00162275 39.71327183 -2.48681641 42.73095703 C-3.0441748 43.88321777 -3.6015332 45.03547852 -4.17578125 46.22265625 C-4.68278564 47.25140869 -5.18979004 48.28016113 -5.7121582 49.34008789 C-6.75150196 52.24114478 -6.78262605 53.25650359 -5.6875 56.0625 C-4.88505653 59.11178518 -4.62457556 60.80369215 -5.37890625 63.90625 C-5.77739948 67.98197827 -4.78945837 69.04798058 -2.25 72.1875 C0.75434304 76.04873393 3.61902999 79.91427908 6.3125 84 C6.9725 84.99773437 7.6325 85.99546875 8.3125 87.0234375 C9.64583333 89.04947917 10.97916667 91.07552083 12.3125 93.1015625 C16.16270503 98.92198964 20.13688991 104.61235661 24.26806641 110.23632812 C27.96462428 115.34635367 31.47210664 120.58529072 35 125.8125 C36.46146074 127.97448502 37.92368 130.13595753 39.38671875 132.296875 C40.06283203 133.298396 40.73894531 134.29991699 41.43554688 135.33178711 C43.01801452 137.63406346 44.65022474 139.87764926 46.32421875 142.11328125 C48.3125 145.0625 48.3125 145.0625 48.4375 148.5 C47.30240658 152.09446248 45.90530487 154.65881017 43.81274414 157.75268555 C42.28982626 160.09740908 40.93944094 162.47852297 39.609375 164.9375 C39.08448486 165.9078418 38.55959473 166.87818359 38.01879883 167.87792969 C35.58496329 172.42034645 33.16981093 176.97258896 30.75732422 181.52636719 C25.19201012 192.02785206 19.57851308 202.48882644 13.6875 212.8125 C4.6511807 228.65104627 -4.09653853 244.65650909 -12.140625 261.0234375 C-14.36374334 265.39107908 -16.82985795 269.60575322 -19.2890625 273.84375 C-24.62420419 283.13449807 -29.60952347 292.62964708 -34.6875 302.0625 C-38.08791934 300.46994839 -39.77985585 299.01081796 -42.0625 296 C-42.75214844 295.11054687 -43.44179688 294.22109375 -44.15234375 293.3046875 C-44.54534668 292.79776367 -44.93834961 292.29083984 -45.34326172 291.76855469 C-48.04497024 288.33965183 -50.8430817 284.98886153 -53.625 281.625 C-54.85303494 280.13685932 -56.08090232 278.64858033 -57.30859375 277.16015625 C-58.18427002 276.09885498 -58.18427002 276.09885498 -59.07763672 275.01611328 C-61.12068889 272.53681339 -63.155212 270.0506283 -65.1875 267.5625 C-65.87328125 266.72460938 -66.5590625 265.88671875 -67.265625 265.0234375 C-68.62677731 263.35931903 -69.98731982 261.69469983 -71.34570312 260.02832031 C-73.2070542 257.74592565 -75.07209414 255.46658135 -76.9375 253.1875 C-77.82405273 252.09791992 -77.82405273 252.09791992 -78.72851562 250.98632812 C-81.88334748 247.13836221 -85.09482754 243.5066033 -88.6875 240.0625 C-89.6775 241.3825 -90.6675 242.7025 -91.6875 244.0625 C-92.3475 242.7425 -93.0075 241.4225 -93.6875 240.0625 C-94.3475 240.0625 -95.0075 240.0625 -95.6875 240.0625 C-95.94015625 240.87460937 -96.1928125 241.68671875 -96.453125 242.5234375 C-97.90484623 246.6856509 -99.63469803 250.66762975 -101.4375 254.6875 C-101.79674561 255.4916333 -102.15599121 256.2957666 -102.52612305 257.12426758 C-104.86874978 262.33236817 -107.3319788 267.45875841 -109.92578125 272.546875 C-117.08935986 286.84226469 -124.07864513 301.31773889 -130.390625 316.01171875 C-133.79478261 323.92937904 -137.36421169 331.58780373 -141.6875 339.0625 C-145.23746203 337.71919596 -148.48698684 336.14498512 -151.78515625 334.26953125 C-152.75259766 333.72103516 -153.72003906 333.17253906 -154.71679688 332.60742188 C-155.71775391 332.03572266 -156.71871094 331.46402344 -157.75 330.875 C-159.21083008 330.04645508 -159.21083008 330.04645508 -160.70117188 329.20117188 C-163.70132799 327.49613266 -166.69770434 325.78567001 -169.6875 324.0625 C-170.64733134 323.69825487 -171.60716269 323.33400974 -172.59607983 322.95872688 C-176.247001 321.34914864 -178.8162875 319.85124395 -181.6875 317.0625 C-183.48056876 311.22301227 -183.20867951 305.52779488 -183.04980469 299.46899414 C-183.04641766 297.6650312 -183.04832401 295.86105173 -183.05511475 294.05709839 C-183.05855361 289.16984911 -182.98809032 284.2861447 -182.90422726 279.39971852 C-182.82913108 274.28964752 -182.82215652 269.17949211 -182.80792236 264.06895447 C-182.77064702 254.39630422 -182.67220787 244.72528451 -182.55172849 235.05335182 C-182.41752635 224.04032883 -182.3516031 213.02722729 -182.29138327 202.01358998 C-182.16600353 179.36232317 -181.95498008 156.712503 -181.6875 134.0625 C-178.01561769 137.67705096 -174.74738704 141.4090734 -171.625 145.5 C-167.7761865 150.47555234 -163.81440966 155.31531468 -159.6875 160.0625 C-155.71899124 164.63231731 -151.89377741 169.27753489 -148.1875 174.0625 C-143.93407401 179.55307632 -139.49738644 184.84928433 -134.95263672 190.1003418 C-131.5176692 194.07470743 -128.19919188 198.1206466 -124.94140625 202.2421875 C-121.31571461 206.77901482 -117.60907759 211.2490181 -113.91088867 215.72680664 C-111.24906528 218.95037498 -108.58913287 222.17470159 -105.9609375 225.42578125 C-105.19007813 226.37839844 -104.41921875 227.33101562 -103.625 228.3125 C-102.97402344 229.12203125 -102.32304687 229.9315625 -101.65234375 230.765625 C-99.45413763 233.33529736 -97.10493632 235.69952932 -94.6875 238.0625 C-94.0275 236.7425 -93.3675 235.4225 -92.6875 234.0625 C-91.2025 235.0525 -91.2025 235.0525 -89.6875 236.0625 C-89.6875 236.7225 -89.6875 237.3825 -89.6875 238.0625 C-89.0275 238.0625 -88.3675 238.0625 -87.6875 238.0625 C-87.41220459 237.19423584 -87.13690918 236.32597168 -86.85327148 235.43139648 C-85.74482325 232.2281552 -84.46706834 229.23052772 -83.03515625 226.16015625 C-82.51123291 225.03359619 -81.98730957 223.90703613 -81.44750977 222.74633789 C-80.88733154 221.55129639 -80.32715332 220.35625488 -79.75 219.125 C-79.16642523 217.87434225 -78.58301249 216.62360888 -77.99975586 215.37280273 C-73.84378433 206.47351664 -69.62232996 197.60601338 -65.37036133 188.75219727 C-62.55310221 182.88468832 -59.78164781 177.00113835 -57.07421875 171.08203125 C-55.77923556 168.26225095 -54.462653 165.45327548 -53.14135742 162.64575195 C-50.37426141 156.76065184 -47.70356796 150.84518507 -45.125 144.875 C-42.71325226 139.2980408 -40.11685528 133.86540927 -37.3515625 128.453125 C-35.1848097 124.03823901 -33.18828248 119.55452593 -31.1875 115.0625 C-28.36850966 108.7357689 -25.44750554 102.50363127 -22.29296875 96.3359375 C-19.66878794 90.98541798 -17.26544315 85.53528237 -14.84570312 80.08984375 C-14.2975293 78.85814453 -14.2975293 78.85814453 -13.73828125 77.6015625 C-13.39015381 76.8182959 -13.04202637 76.0350293 -12.68334961 75.22802734 C-11.81390193 73.33736764 -10.86261674 71.48477569 -9.8984375 69.640625 C-8.47432138 66.60863585 -8.672528 65.19968619 -9.6875 62.0625 C-10.3475 62.0625 -11.0075 62.0625 -11.6875 62.0625 C-11.96311768 62.66908447 -12.23873535 63.27566895 -12.52270508 63.90063477 C-18.16793628 76.30943714 -23.88289851 88.67829718 -29.8059082 100.95727539 C-33.17880673 107.95666898 -36.44241529 115.00306266 -39.6875 122.0625 C-46.33925928 136.47232468 -53.01724968 150.86650391 -59.90893555 165.16357422 C-63.24608549 172.09472915 -66.47275781 179.07386402 -69.6875 186.0625 C-76.94733697 201.76411431 -84.24491112 217.44652541 -91.6875 233.0625 C-95.42039708 230.07407037 -98.57471878 227.24865069 -101.5 223.4375 C-102.17804688 222.56738281 -102.85609375 221.69726562 -103.5546875 220.80078125 C-104.61042969 219.44533203 -104.61042969 219.44533203 -105.6875 218.0625 C-107.16106982 216.24544682 -108.64032599 214.43299152 -110.125 212.625 C-110.88296875 211.70074219 -111.6409375 210.77648437 -112.421875 209.82421875 C-113.16953125 208.91285156 -113.9171875 208.00148438 -114.6875 207.0625 C-116.08346765 205.35427642 -117.47929898 203.64594143 -118.875 201.9375 C-123.41475768 196.38802388 -127.97437401 190.85498583 -132.53393555 185.32177734 C-136.46002838 180.55623259 -140.37448864 175.78140943 -144.28125 171 C-147.40926157 167.18138847 -150.54836292 163.37196716 -153.6875 159.5625 C-158.33174911 153.92618545 -162.96986473 148.28514225 -167.58984375 142.62890625 C-169.10052757 140.78063945 -170.61387362 138.93454748 -172.12890625 137.08984375 C-173.33353516 135.62224609 -173.33353516 135.62224609 -174.5625 134.125 C-175.28179687 133.24972656 -176.00109375 132.37445313 -176.7421875 131.47265625 C-177.38414062 130.67730469 -178.02609375 129.88195312 -178.6875 129.0625 C-179.25210937 128.50175781 -179.81671875 127.94101562 -180.3984375 127.36328125 C-182.55418877 123.51559187 -182.36241522 119.52364616 -182.4375 115.1875 C-182.499375 114.30191406 -182.56125 113.41632813 -182.625 112.50390625 C-182.6913742 108.79248242 -182.70046343 106.14268596 -180.08349609 103.35205078 C-177.69631869 101.72044038 -175.25533069 100.39207572 -172.6875 99.0625 C-170.66713512 97.89169855 -168.64903748 96.71697894 -166.6328125 95.5390625 C-164.95182527 94.58727799 -163.27077839 93.63559196 -161.58758545 92.68771362 C-158.48570615 90.93988682 -155.39093731 89.17958754 -152.296875 87.41796875 C-151.66216278 87.05661331 -151.02745056 86.69525787 -150.37350464 86.32295227 C-143.89173983 82.62354246 -137.4738763 78.82011171 -131.0625 75 C-121.2875237 69.17876375 -111.46509461 63.44902793 -101.6015625 57.77929688 C-93.39795355 53.05975076 -85.22456193 48.29085474 -77.0625 43.5 C-75.84938897 42.78853374 -74.63625435 42.07710771 -73.4230957 41.36572266 C-68.05646693 38.21795406 -62.69200699 35.06662519 -57.33416748 31.90391541 C-54.55787602 30.26627842 -51.77858988 28.63373331 -49 27 C-47.98405762 26.39792725 -46.96811523 25.79585449 -45.92138672 25.17553711 C-44.99471191 24.6316333 -44.06803711 24.08772949 -43.11328125 23.52734375 C-42.30286377 23.049021 -41.49244629 22.57069824 -40.6574707 22.07788086 C-38.6875 21.0625 -38.6875 21.0625 -36.6875 21.0625 C-35.19921875 23.01953125 -35.19921875 23.01953125 -33.375 25.875 C-29.64292977 31.62033381 -25.81759913 37.29099351 -21.9375 42.9375 C-18.49000905 47.95927004 -15.05127872 52.98417387 -11.6875 58.0625 C-10.6975 57.0725 -10.6975 57.0725 -9.6875 56.0625 C-9.96291465 51.52441772 -11.15833863 48.90733745 -13.9375 45.375 C-14.64261719 44.44171875 -15.34773437 43.5084375 -16.07421875 42.546875 C-16.47817871 42.01255859 -16.88213867 41.47824219 -17.29833984 40.92773438 C-20.18964355 37.04556209 -22.974443 33.09034978 -25.75 29.125 C-26.34651367 28.29589111 -26.94302734 27.46678223 -27.55761719 26.61254883 C-28.38181152 25.429552 -28.38181152 25.429552 -29.22265625 24.22265625 C-29.721604 23.51761963 -30.22055176 22.81258301 -30.73461914 22.08618164 C-31.6875 20.0625 -31.6875 20.0625 -31.65112305 17.99804688 C-30.2588772 15.20156218 -28.46019517 14.41809912 -25.734375 12.93359375 C-24.72246094 12.37349609 -23.71054687 11.81339844 -22.66796875 11.23632812 C-21.60191406 10.66333984 -20.53585937 10.09035156 -19.4375 9.5 C-17.34880666 8.35314077 -15.26025998 7.20601439 -13.171875 6.05859375 C-11.77533691 5.30340454 -11.77533691 5.30340454 -10.35058594 4.53295898 C-8.54140485 3.53399513 -6.76179898 2.47992346 -5.01269531 1.37915039 C-2.6875 0.0625 -2.6875 0.0625 0 0 Z " fill="#00ADB5" transform="translate(600.6875,224.9375)"/>
<path d="M0 0 C4.10532364 0.58627571 6.94623275 1.9275247 10.48046875 4.0703125 C11.54885986 4.71186279 12.61725098 5.35341309 13.71801758 6.0144043 C14.28259674 6.3578891 14.8471759 6.7013739 15.42886353 7.05526733 C18.45159404 8.89391541 21.48872396 10.70856864 24.5234375 12.52734375 C25.14614029 12.90149918 25.76884308 13.2756546 26.41041565 13.66114807 C32.66622297 17.41477422 38.98396286 21.0580312 45.3125 24.6875 C56.93210145 31.36277838 68.48136305 38.15216858 80 45 C79.39167628 49.09635838 78.04132037 52.17037622 76.078125 55.8046875 C75.47162109 56.93326172 74.86511719 58.06183594 74.24023438 59.22460938 C73.57709175 60.44155278 72.91367331 61.65834593 72.25 62.875 C71.56543086 64.14110072 70.88119016 65.40737908 70.19726562 66.67382812 C65.55238519 75.25182072 60.78543605 83.75756205 55.94116211 92.22460938 C52.85227515 97.64621235 49.85234501 103.10680685 46.92578125 108.6171875 C46.58259857 109.26274597 46.23941589 109.90830444 45.88583374 110.57342529 C44.19754129 113.75333915 42.51754558 116.93733831 40.84765625 120.12695312 C40.244375 121.26841797 39.64109375 122.40988281 39.01953125 123.5859375 C38.21672729 125.11806885 38.21672729 125.11806885 37.39770508 126.68115234 C36 129 36 129 34 130 C33.61368408 129.4330542 33.22736816 128.8661084 32.8293457 128.28198242 C21.64084643 111.86348334 10.44673622 95.44890439 -0.81933594 79.08349609 C-3.37619263 75.36774271 -5.92566743 71.64707178 -8.46875 67.921875 C-9.34950195 66.63216797 -9.34950195 66.63216797 -10.24804688 65.31640625 C-11.39076088 63.642464 -12.5327238 61.96800871 -13.67382812 60.29296875 C-14.19396484 59.53113281 -14.71410156 58.76929688 -15.25 57.984375 C-15.70890625 57.31116211 -16.1678125 56.63794922 -16.640625 55.94433594 C-17.60268975 54.56827924 -18.62236203 53.23168421 -19.67919922 51.92700195 C-21 50 -21 50 -20.8828125 47.18359375 C-19.88269337 43.57696944 -18.50668106 40.43195798 -16.875 37.0625 C-16.2381609 35.73182842 -15.60144565 34.40109757 -14.96484375 33.0703125 C-14.6385498 32.39516602 -14.31225586 31.72001953 -13.97607422 31.02441406 C-12.44043061 27.83943237 -10.93599034 24.64009824 -9.4375 21.4375 C-9.15173096 20.82777344 -8.86596191 20.21804688 -8.5715332 19.58984375 C-5.56055697 13.12542727 -2.76489608 6.57295808 0 0 Z " fill="#00ADB5" transform="translate(618,236)"/>
<path d="M0 0 C4.17879326 1.5621657 6.51481407 4.64400829 9.25 8 C9.97678955 8.87567627 9.97678955 8.87567627 10.71826172 9.76904297 C14.20809656 13.98799371 17.64041161 18.2533906 21.04296875 22.54296875 C24.64705131 27.06785483 28.33105866 31.52768702 32 36 C33.39596765 37.70822358 34.79179898 39.41655857 36.1875 41.125 C40.1144553 45.92537618 44.05612457 50.71351928 48 55.5 C53.34618369 61.98960771 58.68947413 68.4811518 64 75 C64.76699219 75.93070313 65.53398438 76.86140625 66.32421875 77.8203125 C67.06285156 78.72523438 67.80148437 79.63015625 68.5625 80.5625 C69.22378906 81.36816406 69.88507813 82.17382812 70.56640625 83.00390625 C72 85 72 85 72 87 C62.66666667 92.33333333 53.33333333 97.66666667 44 103 C43.41590363 103.38514771 42.83180725 103.77029541 42.23001099 104.16711426 C39.29445855 106.04421753 37.42279924 107.00949549 33.90185547 106.93041992 C30.84001716 105.94870481 28.33926167 104.74719295 25.5703125 103.11328125 C24.53962646 102.51153076 23.50894043 101.90978027 22.44702148 101.28979492 C21.35075439 100.6372876 20.2544873 99.98478027 19.125 99.3125 C17.96935087 98.63363636 16.81317354 97.95567117 15.65649414 97.27856445 C13.27390042 95.88212259 10.89432973 94.48073118 8.51708984 93.07519531 C4.17648541 90.51057047 -0.18284108 87.97835826 -4.54150391 85.44458008 C-15.04915656 79.33309017 -25.52919469 73.17436074 -36 67 C-34.62595793 63.39471532 -33.02707054 60.02939875 -31.19921875 56.6328125 C-30.64049072 55.59342529 -30.0817627 54.55403809 -29.50610352 53.4831543 C-28.90596436 52.37496338 -28.3058252 51.26677246 -27.6875 50.125 C-26.75732056 48.40180542 -26.75732056 48.40180542 -25.80834961 46.64379883 C-21.1197521 37.97884405 -16.30552684 29.38758629 -11.43359375 20.82446289 C-7.51647787 13.93715238 -3.69860503 7.00717536 0 0 Z " fill="#01ADB5" transform="translate(565,539)"/>
<path d="M0 0 C0.66 -0.01933594 1.32 -0.03867187 2 -0.05859375 C4.98552434 0.68195623 6.0952176 2.04469812 8 4.4375 C8.51225281 7.56253052 8.51225281 7.56253052 8.5300293 11.28564453 C8.53876068 11.96576599 8.54749207 12.64588745 8.55648804 13.34661865 C8.58082849 15.58811974 8.57745602 17.82869624 8.57421875 20.0703125 C8.58666411 21.62923758 8.60099841 23.18814863 8.61714172 24.74703979 C8.65516487 28.84636328 8.67035529 32.94544515 8.67993164 37.04492188 C8.69967863 43.61366068 8.75645224 50.18221529 8.80869484 56.75075912 C8.824066 59.04748901 8.8312364 61.34412735 8.83683777 63.64089966 C8.84385213 65.04331507 8.8509529 66.44573006 8.8581543 67.84814453 C8.86163376 69.07518097 8.86511322 70.30221741 8.86869812 71.56643677 C8.80280574 74.3813487 8.80280574 74.3813487 10 76.4375 C11.98 76.4375 13.96 76.4375 16 76.4375 C16.875 79.625 16.875 79.625 17 83.4375 C14.46002676 86.49849339 12.85840848 88.0253238 8.9921875 88.8828125 C5.56799977 89.07810838 3.19749531 88.54283083 0.1875 86.9375 C-2.71132068 83.62456208 -3.6740224 80.62479769 -5 76.4375 C-5.556875 76.994375 -6.11375 77.55125 -6.6875 78.125 C-7.8321875 79.2696875 -7.8321875 79.2696875 -9 80.4375 C-9.763125 81.283125 -10.52625 82.12875 -11.3125 83 C-16.57068187 87.76904867 -21.72587674 88.97651752 -28.64453125 88.71484375 C-34.55900129 88.01844678 -37.83617026 84.91224937 -41.60546875 80.64453125 C-46.22749115 73.32956583 -46.49291167 66.50522338 -46.4375 58.0625 C-46.45748047 56.99 -46.47746094 55.9175 -46.49804688 54.8125 C-46.49274353 46.0938013 -44.57951925 39.45851531 -39.875 32.125 C-34.4491963 27.05305307 -28.81340301 24.16448744 -21.3125 23.9375 C-16.55392464 24.17340671 -13.12916219 25.0654281 -9 27.4375 C-8.34 28.4275 -7.68 29.4175 -7 30.4375 C-6.97247387 27.99990848 -6.95169321 25.56268401 -6.9375 23.125 C-6.92928223 22.03699097 -6.92928223 22.03699097 -6.92089844 20.92700195 C-6.91399745 15.72538085 -7.3217546 10.71429856 -8.171875 5.57421875 C-8 3.4375 -8 3.4375 -6.265625 1.671875 C-3.93652759 0.40291848 -2.62382785 0.00512466 0 0 Z " fill="#04AEB5" transform="translate(656,736.5625)"/>
<path d="M0 0 C6.14130889 6.49224083 7.25427675 13.91632159 7.50390625 22.58203125 C7.52468735 23.26303391 7.54546844 23.94403656 7.56687927 24.64567566 C7.63187878 26.80535508 7.69102712 28.96514846 7.75 31.125 C7.7932325 32.59571456 7.83684825 34.06641791 7.88085938 35.53710938 C7.98750859 39.12878717 8.08891349 42.72059082 8.1875 46.3125 C11.65897842 47.06207157 11.65897842 47.06207157 15.1875 47.3125 C15.78944175 54.53580097 15.78944175 54.53580097 13.25 57.8125 C9.08474873 59.85262307 5.73833582 60.21143053 1.1875 59.3125 C-4.22114323 56.20753815 -5.69075636 53.0115164 -7.3671875 47.10546875 C-7.51414062 46.51378906 -7.66109375 45.92210937 -7.8125 45.3125 C-8.7715625 46.859375 -8.7715625 46.859375 -9.75 48.4375 C-13.54070743 53.76615159 -19.27748667 58.14959627 -25.8125 59.3125 C-32.30596303 60.08553131 -36.74660281 59.4300219 -42.21875 55.796875 C-44.7204711 53.46684065 -45.66305176 51.34994882 -46.1484375 47.98046875 C-46.23723162 42.34204188 -45.88237726 37.57021775 -41.8125 33.3125 C-33.30791297 26.94157261 -23.66472012 23.1215094 -13 23.25 C-12.02417969 23.25902344 -11.04835938 23.26804687 -10.04296875 23.27734375 C-8.93888672 23.29474609 -8.93888672 23.29474609 -7.8125 23.3125 C-8.18840832 12.0225831 -8.18840832 12.0225831 -13.5 2.375 C-16.96128259 0.78468097 -20.07508052 0.64619776 -23.8125 1.3125 C-26.47916667 2.64583333 -26.47916667 2.64583333 -27.8125 5.3125 C-28.38600015 9.36855903 -28.11199114 13.41402657 -26.8125 17.3125 C-26.1525 17.3125 -25.4925 17.3125 -24.8125 17.3125 C-24.8125 17.9725 -24.8125 18.6325 -24.8125 19.3125 C-29.200846 20.775282 -33.24333806 21.16966061 -37.8125 20.3125 C-41.88738927 17.61458706 -43.55263621 14.52519769 -44.5625 9.8125 C-43.54659453 5.0716078 -41.4183317 2.47579781 -37.8125 -0.6875 C-26.7105724 -7.34865656 -10.95048315 -6.57028989 0 0 Z " fill="#05AEB6" transform="translate(504.8125,765.6875)"/>
<path d="M0 0 C3.69559128 2.87139466 5.85774261 5.51187858 6.52734375 10.16015625 C6.61795323 15.91385805 6.30692288 20.52653448 2.19140625 24.828125 C-3.75553812 29.09971751 -9.35325306 30.97299817 -16.671875 30.92578125 C-18.0012207 30.92094727 -18.0012207 30.92094727 -19.35742188 30.91601562 C-20.26943359 30.90763672 -21.18144531 30.89925781 -22.12109375 30.890625 C-23.05244141 30.88611328 -23.98378906 30.88160156 -24.94335938 30.87695312 C-27.23183748 30.86521734 -29.52018183 30.84879863 -31.80859375 30.828125 C-31.24139256 32.91590812 -30.65415172 34.99825331 -30.05859375 37.078125 C-29.57132813 38.81835938 -29.57132813 38.81835938 -29.07421875 40.59375 C-27.46894044 44.69612791 -25.55619259 46.7069567 -21.890625 49.05859375 C-16.69039394 50.98063037 -10.08304414 50.63250031 -4.93359375 48.640625 C-1.65003045 46.73615829 0.59494019 44.57296055 3.19140625 41.828125 C3.85140625 41.828125 4.51140625 41.828125 5.19140625 41.828125 C5.53982979 45.48657215 5.32273376 47.55999799 3.69140625 50.890625 C-0.54766847 55.8715378 -5.30040628 58.88183068 -11.80859375 59.828125 C-21.69814942 60.618771 -29.25057055 59.40996217 -37.62109375 54.015625 C-45.5543611 46.08235765 -47.16793845 38.41183192 -47.18359375 27.453125 C-47.20808594 26.55851563 -47.23257813 25.66390625 -47.2578125 24.7421875 C-47.29246235 16.79582171 -45.02459277 11.1204664 -40.62109375 4.578125 C-30.14603917 -5.66415059 -12.57831632 -8.15009697 0 0 Z " fill="#05AEB6" transform="translate(733.80859375,765.171875)"/>
<path d="M0 0 C4.37634969 0.97449082 6.55079793 3.86135315 8.9296875 7.4296875 C9.0546875 10.1171875 9.0546875 10.1171875 8.9296875 12.4296875 C9.6515625 11.7078125 10.3734375 10.9859375 11.1171875 10.2421875 C12.0453125 9.3140625 12.9734375 8.3859375 13.9296875 7.4296875 C14.7546875 6.5428125 15.5796875 5.6559375 16.4296875 4.7421875 C21.23799325 0.29450468 25.89934571 0.03937727 32.2109375 0.18359375 C37.65009191 0.675931 40.80883845 2.30883845 44.7421875 6.2421875 C48.71261684 12.02767025 49.23480346 17.24907124 49.30859375 24.046875 C49.32558823 24.86286163 49.3425827 25.67884827 49.36009216 26.51956177 C49.4129301 29.11452598 49.45334863 31.70947916 49.4921875 34.3046875 C49.53639144 36.89267111 49.58336238 39.48054359 49.63499451 42.06838989 C49.6664652 43.67334567 49.69349649 45.27839718 49.71522522 46.8835144 C49.80477614 51.8013607 50.24433316 56.55797475 50.9296875 61.4296875 C47.77968522 64.57968978 45.1623537 64.80177736 40.9296875 64.92578125 C37.83237018 64.15750137 36.84098982 63.00207672 34.9296875 60.4296875 C34.33784355 57.25014003 34.39638222 54.10521876 34.42578125 50.87890625 C34.41636002 49.94673782 34.40693878 49.0145694 34.39723206 48.05415344 C34.36856498 45.07494158 34.36550358 42.09652615 34.3671875 39.1171875 C34.36357295 36.14867637 34.35394177 33.18074714 34.32643127 30.21235657 C34.30972643 28.36704293 34.30670114 26.5215385 34.31944275 24.67619324 C34.27476979 19.17625545 33.61354514 15.27259975 30.9296875 10.4296875 C27.52012478 8.15664568 25.93786799 8.36724237 21.96484375 8.75 C18.44700911 9.92486224 16.45164026 12.49649 14.67504883 15.67285156 C11.52556423 23.81407619 11.43287814 31.58740936 11.6171875 40.1796875 C11.62871356 41.56378854 11.63848836 42.94790531 11.64648438 44.33203125 C11.70775591 50.45114365 11.96870175 56.37262382 12.9296875 62.4296875 C9.26724447 64.77365104 6.20574597 64.95481749 1.9296875 64.4296875 C-0.95434799 62.40061882 -2.77960974 60.79159827 -3.53527832 57.25137329 C-3.72942926 54.54609962 -3.76232351 51.88014886 -3.7421875 49.16796875 C-3.76131195 47.68746284 -3.76131195 47.68746284 -3.78082275 46.17704773 C-3.81709821 43.03180115 -3.81983166 39.88762484 -3.8203125 36.7421875 C-3.84191243 33.58643745 -3.87034201 30.43084985 -3.90264893 27.27519226 C-3.92043767 25.31318051 -3.93069711 23.35108357 -3.93280029 21.38899231 C-3.93851044 20.06202583 -3.93851044 20.06202583 -3.94433594 18.70825195 C-3.94479919 17.92835403 -3.94526245 17.14845612 -3.94573975 16.34492493 C-3.95144646 14.34390537 -3.95144646 14.34390537 -5.0703125 12.4296875 C-6.7203125 12.7596875 -8.3703125 13.0896875 -10.0703125 13.4296875 C-11.51462105 10.54107041 -11.44719756 8.63321049 -11.0703125 5.4296875 C-7.93937737 0.92896825 -5.29622423 -0.33975778 0 0 Z " fill="#03ADB5" transform="translate(541.0703125,760.5703125)"/>
<path d="M0 0 C0.89740402 -0.0030011 1.79480804 -0.0060022 2.71940613 -0.00909424 C4.16021294 0.00942596 4.16021294 0.00942596 5.63012695 0.02832031 C6.62091751 0.03019348 7.61170807 0.03206665 8.63252258 0.03399658 C10.72298558 0.04071147 12.81343612 0.05461477 14.90380859 0.07519531 C18.11673553 0.10642905 21.32917244 0.11617433 24.54223633 0.12207031 C26.57153923 0.13123706 28.60083712 0.14161178 30.63012695 0.15332031 C31.59673752 0.15757019 32.56334808 0.16182007 33.55924988 0.16619873 C34.89117119 0.18061005 34.89117119 0.18061005 36.25 0.1953125 C37.4277021 0.2055545 37.4277021 0.2055545 38.62919617 0.21600342 C40.4309082 0.35644531 40.4309082 0.35644531 41.4309082 1.35644531 C40.83457793 8.75094073 40.83457793 8.75094073 38.4309082 12.35644531 C32.19352261 11.73270675 26.19917507 10.47774655 20.09106445 9.07519531 C15.91211186 8.25456855 11.66362474 7.82674715 7.4309082 7.35644531 C7.4309082 16.59644531 7.4309082 25.83644531 7.4309082 35.35644531 C16.3409082 35.35644531 25.2509082 35.35644531 34.4309082 35.35644531 C34.4309082 37.99644531 34.4309082 40.63644531 34.4309082 43.35644531 C25.5209082 43.35644531 16.6109082 43.35644531 7.4309082 43.35644531 C7.55118254 47.80403673 7.67400154 52.25141056 7.80322266 56.69873047 C7.84637174 58.20975657 7.88805976 59.72082517 7.92822266 61.23193359 C7.98641383 63.41158825 8.04996373 65.59103294 8.11450195 67.77050781 C8.15115967 69.07971191 8.18781738 70.38891602 8.22558594 71.73779297 C8.41176502 75.019061 8.81767636 78.13097678 9.4309082 81.35644531 C6.28090593 84.50644759 3.6635744 84.72853517 -0.5690918 84.85253906 C-3.54365863 84.11470706 -4.66398743 82.73126346 -6.5690918 80.35644531 C-7.0813446 77.35444641 -7.0813446 77.35444641 -7.09912109 73.80297852 C-7.11221817 72.82892311 -7.11221817 72.82892311 -7.12557983 71.83518982 C-7.14993677 69.69225322 -7.14654459 67.55028399 -7.14331055 65.40722656 C-7.1557648 63.9099108 -7.17010155 62.41260963 -7.18623352 60.91532898 C-7.22427557 56.97157804 -7.23944333 53.02807782 -7.24902344 49.08416748 C-7.26874594 42.79030228 -7.32600785 36.49662838 -7.37778664 30.20296288 C-7.39299106 28.01568754 -7.40029964 25.82850816 -7.40592957 23.64118958 C-7.44064262 15.32619417 -7.44064262 15.32619417 -8.33007812 7.06811523 C-8.40895264 5.84326416 -8.48782715 4.61841309 -8.5690918 3.35644531 C-5.84501803 0.6160092 -3.80073753 -0.01759454 0 0 Z " fill="#02ADB5" transform="translate(338.569091796875,740.6435546875)"/>
<path d="M0 0 C3 2.25 3 2.25 5 5 C5.48259887 8.49884179 5.63513623 10.76942356 4 13.9375 C0.73357754 15.67278693 -2.34351452 15.17982715 -6 15 C-6.15855469 14.30132813 -6.31710937 13.60265625 -6.48046875 12.8828125 C-7.68145642 7.41369003 -7.68145642 7.41369003 -11.1875 3.375 C-17.94349549 2.46420488 -17.94349549 2.46420488 -24.5 4.0625 C-26.26218328 6.04598871 -26.26218328 6.04598871 -26.6875 9.3125 C-25.93117428 13.36915612 -24.8437554 14.90765467 -21.59375 17.3984375 C-17.53252078 19.90612422 -13.27246825 21.99910834 -8.95117188 24.02124023 C-1.3426073 27.61612095 4.57868973 31.06256017 8 39 C8.89777625 44.4864104 7.53442378 47.71976778 4.484375 52.140625 C0.42124685 57.23022763 -3.59537636 59.52998022 -10 61 C-12.98547671 61.28825292 -15.9397194 61.32514886 -18.9375 61.3125 C-19.69740234 61.32861328 -20.45730469 61.34472656 -21.24023438 61.36132812 C-27.82029944 61.36694731 -34.56322409 60.06493711 -39.5 55.375 C-42.45916781 52.15781211 -42.61402671 49.30143091 -42.50390625 45.05078125 C-41.87797765 42.50339743 -41.10732611 41.54407766 -39 40 C-35.3125 39.8125 -35.3125 39.8125 -32 40 C-31.91363281 40.59167969 -31.82726562 41.18335938 -31.73828125 41.79296875 C-30.75168512 47.34144055 -29.56563473 50.34749222 -25 54 C-22.426671 55.2866645 -20.49776962 55.16824551 -17.625 55.1875 C-16.66851563 55.20167969 -15.71203125 55.21585938 -14.7265625 55.23046875 C-11.93718032 54.99469003 -10.33192451 54.51734814 -8 53 C-6.43569752 49.87139505 -6.64372716 47.44397075 -7 44 C-10.7498633 40.34370335 -15.1382363 38.32719226 -19.8125 36.125 C-35.78694415 28.3241585 -35.78694415 28.3241585 -39.3671875 21.05078125 C-40.71970336 16.66762801 -40.87231936 12.49376642 -40 8 C-37.32845406 2.94968027 -33.29893973 0.02938117 -28 -2 C-19.04683677 -4.23043716 -8.22621929 -4.41778444 0 0 Z " fill="#05AEB6" transform="translate(861,764)"/>
<path d="M0 0 C3.6848827 0.90139009 5.4111705 2.71872063 7.99609375 5.48828125 C9.37109375 8.30078125 9.37109375 8.30078125 9.99609375 10.48828125 C10.455 9.93398438 10.91390625 9.3796875 11.38671875 8.80859375 C12.0003125 8.08414063 12.61390625 7.3596875 13.24609375 6.61328125 C13.849375 5.89398437 14.45265625 5.1746875 15.07421875 4.43359375 C18.39675492 1.07053884 21.18884457 0.18621348 25.87109375 0.11328125 C30.65644718 0.21194833 33.33058048 1.26978179 36.99609375 4.48828125 C40.39609181 8.30311161 40.51907147 11.10762554 40.3359375 16.07421875 C39.82776457 19.6839989 38.8767701 21.25575708 35.99609375 23.48828125 C33.1603791 24.34413074 31.03298178 24.44007668 27.99609375 24.48828125 C27.00609375 23.82828125 26.01609375 23.16828125 24.99609375 22.48828125 C25.16109375 21.99328125 25.32609375 21.49828125 25.49609375 20.98828125 C26.2228156 17.35467202 26.23570293 14.20222359 25.99609375 10.48828125 C22.14578325 7.92140758 20.41039612 8.65539401 15.99609375 9.48828125 C15.51576195 11.07126151 15.03687763 12.65468103 14.55859375 14.23828125 C14.29175781 15.12 14.02492188 16.00171875 13.75 16.91015625 C13.50121094 17.7609375 13.25242187 18.61171875 12.99609375 19.48828125 C12.81828369 20.05409912 12.64047363 20.61991699 12.45727539 21.20288086 C11.81872389 24.36724326 11.86613596 27.40556738 11.86328125 30.6328125 C11.86232452 31.32082443 11.8613678 32.00883636 11.86038208 32.71769714 C11.85970306 34.17092989 11.86153793 35.6241657 11.86572266 37.07739258 C11.87105028 39.28278566 11.86578099 41.4879728 11.859375 43.69335938 C11.86003631 45.11067753 11.86131856 46.52799555 11.86328125 47.9453125 C11.86440918 49.2238208 11.86553711 50.5023291 11.86669922 51.81958008 C11.99555783 55.47308631 12.41122092 58.88582469 12.99609375 62.48828125 C9.33365072 64.83224479 6.27215222 65.01341124 1.99609375 64.48828125 C-0.88794174 62.45921257 -2.71320349 60.85019202 -3.46887207 57.30996704 C-3.66302301 54.60469337 -3.69591726 51.93874261 -3.67578125 49.2265625 C-3.6949057 47.74605659 -3.6949057 47.74605659 -3.7144165 46.23564148 C-3.75069196 43.0903949 -3.75342541 39.94621859 -3.75390625 36.80078125 C-3.77550618 33.6450312 -3.80393576 30.4894436 -3.83624268 27.33378601 C-3.85403142 25.37177426 -3.86429086 23.40967732 -3.86639404 21.44758606 C-3.87210419 20.12061958 -3.87210419 20.12061958 -3.87792969 18.7668457 C-3.87839294 17.98694778 -3.8788562 17.20704987 -3.8793335 16.40351868 C-3.88504021 14.40249912 -3.88504021 14.40249912 -5.00390625 12.48828125 C-6.65390625 12.48828125 -8.30390625 12.48828125 -10.00390625 12.48828125 C-10.81640625 9.30078125 -10.81640625 9.30078125 -11.00390625 5.48828125 C-8.09678897 1.08071635 -5.35315416 -0.35417844 0 0 Z " fill="#04AEB6" transform="translate(765.00390625,760.51171875)"/>
<path d="M0 0 C3.6848827 0.90139009 5.4111705 2.71872063 7.99609375 5.48828125 C9.37109375 8.30078125 9.37109375 8.30078125 9.99609375 10.48828125 C10.455 9.93398438 10.91390625 9.3796875 11.38671875 8.80859375 C12.0003125 8.08414063 12.61390625 7.3596875 13.24609375 6.61328125 C13.849375 5.89398437 14.45265625 5.1746875 15.07421875 4.43359375 C18.39675492 1.07053884 21.18884457 0.18621348 25.87109375 0.11328125 C30.65644718 0.21194833 33.33058048 1.26978179 36.99609375 4.48828125 C40.39609181 8.30311161 40.51907147 11.10762554 40.3359375 16.07421875 C39.82776457 19.6839989 38.8767701 21.25575708 35.99609375 23.48828125 C33.1603791 24.34413074 31.03298178 24.44007668 27.99609375 24.48828125 C27.00609375 23.82828125 26.01609375 23.16828125 24.99609375 22.48828125 C25.16109375 21.99328125 25.32609375 21.49828125 25.49609375 20.98828125 C26.2228156 17.35467202 26.23570293 14.20222359 25.99609375 10.48828125 C22.14578325 7.92140758 20.41039612 8.65539401 15.99609375 9.48828125 C15.51576195 11.07126151 15.03687763 12.65468103 14.55859375 14.23828125 C14.29175781 15.12 14.02492188 16.00171875 13.75 16.91015625 C13.50121094 17.7609375 13.25242187 18.61171875 12.99609375 19.48828125 C12.81828369 20.05409912 12.64047363 20.61991699 12.45727539 21.20288086 C11.81872389 24.36724326 11.86613596 27.40556738 11.86328125 30.6328125 C11.86232452 31.32082443 11.8613678 32.00883636 11.86038208 32.71769714 C11.85970306 34.17092989 11.86153793 35.6241657 11.86572266 37.07739258 C11.87105028 39.28278566 11.86578099 41.4879728 11.859375 43.69335938 C11.86003631 45.11067753 11.86131856 46.52799555 11.86328125 47.9453125 C11.86440918 49.2238208 11.86553711 50.5023291 11.86669922 51.81958008 C11.99555783 55.47308631 12.41122092 58.88582469 12.99609375 62.48828125 C9.33365072 64.83224479 6.27215222 65.01341124 1.99609375 64.48828125 C-0.88794174 62.45921257 -2.71320349 60.85019202 -3.46887207 57.30996704 C-3.66302301 54.60469337 -3.69591726 51.93874261 -3.67578125 49.2265625 C-3.6949057 47.74605659 -3.6949057 47.74605659 -3.7144165 46.23564148 C-3.75069196 43.0903949 -3.75342541 39.94621859 -3.75390625 36.80078125 C-3.77550618 33.6450312 -3.80393576 30.4894436 -3.83624268 27.33378601 C-3.85403142 25.37177426 -3.86429086 23.40967732 -3.86639404 21.44758606 C-3.87210419 20.12061958 -3.87210419 20.12061958 -3.87792969 18.7668457 C-3.87839294 17.98694778 -3.8788562 17.20704987 -3.8793335 16.40351868 C-3.88504021 14.40249912 -3.88504021 14.40249912 -5.00390625 12.48828125 C-6.65390625 12.48828125 -8.30390625 12.48828125 -10.00390625 12.48828125 C-10.81640625 9.30078125 -10.81640625 9.30078125 -11.00390625 5.48828125 C-8.09678897 1.08071635 -5.35315416 -0.35417844 0 0 Z " fill="#04AEB6" transform="translate(404.00390625,760.51171875)"/>
<path d="M0 0 C0.66 0 1.32 0 2 0 C3.20166016 1.46191406 3.20166016 1.46191406 4.5390625 3.515625 C5.03374023 4.26730957 5.52841797 5.01899414 6.03808594 5.79345703 C6.56176758 6.60411621 7.08544922 7.41477539 7.625 8.25 C8.70570647 9.89845238 9.78643572 11.54688983 10.8671875 13.1953125 C11.39795898 14.01032227 11.92873047 14.82533203 12.47558594 15.66503906 C14.54436236 18.83380551 16.64563221 21.97976213 18.75 25.125 C19.83333333 26.75 20.91666667 28.375 22 30 C19.59333485 32.66832407 17.01747845 34.28262452 13.8984375 36.046875 C12.86187012 36.63782959 11.82530273 37.22878418 10.75732422 37.83764648 C9.64115723 38.46872314 8.52499023 39.0997998 7.375 39.75 C5.03016373 41.08799431 2.6861495 42.42728892 0.34375 43.76953125 C-0.55744064 44.28550621 -0.55744064 44.28550621 -1.47683716 44.81190491 C-11.74864221 50.70874513 -21.86699876 56.86894283 -32 63 C-32.33 62.34 -32.66 61.68 -33 61 C-32.03466797 58.7512207 -32.03466797 58.7512207 -30.4921875 55.92578125 C-29.92371094 54.87664551 -29.35523438 53.82750977 -28.76953125 52.74658203 C-28.14433594 51.61333496 -27.51914062 50.48008789 -26.875 49.3125 C-26.23514672 48.13944929 -25.59582938 46.9661061 -24.95703125 45.79248047 C-20.18963482 37.05866027 -15.29139108 28.39930137 -10.36401367 19.75488281 C-6.68039707 13.27245398 -3.17819031 6.7482123 0 0 Z " fill="#02ADB5" transform="translate(748,517)"/>
<path d="M0 0 C6.43263076 7.39752537 5.61823309 16.7415302 5 26 C4.37663691 29.85476736 3.39770504 33.35876843 2 37 C1.70996094 37.77214844 1.41992188 38.54429687 1.12109375 39.33984375 C-0.4276693 42.92338336 -1.61518165 44.71779987 -4.8125 47.0625 C-8.6801501 48.20004415 -11.11487487 48.02625947 -15 47 C-18.04340064 45.11099271 -18.64793224 42.48421514 -19.57006836 39.12255859 C-20.39183299 35.06553321 -20.38246119 31.00178335 -20.375 26.875 C-20.37338867 25.95154785 -20.37177734 25.0280957 -20.37011719 24.07666016 C-20.23851767 16.69031443 -19.50766003 9.64723229 -16 3 C-11.19174566 -1.36589494 -6.08963541 -1.81697983 0 0 Z " fill="#EAEDED" transform="translate(645,769)"/>
<path d="M0 0 C3.38031589 1.18767855 3.93216817 1.89825225 6 5 C6.77520227 10.84925349 6.48182551 16.07741911 3 21 C-2.92405465 25.64317797 -9.83447636 25.14331047 -17 25 C-17.55660413 16.72824411 -17.02506338 9.95303188 -11.64453125 3.33203125 C-7.95122075 -0.20285306 -4.94062516 -0.64045141 0 0 Z " fill="#E8ECEC" transform="translate(719,766)"/>
<path d="M0 0 C-0.03150614 7.68749849 -1.55286215 12.4893757 -7 18 C-10.20858719 20.67382266 -12.05690564 21.87055568 -16.1875 22.4375 C-19.28521161 21.95563375 -20.18076292 21.48948232 -22 19 C-23.57455739 15.85088521 -23.34799118 13.47991184 -23 10 C-20.01388868 5.43300622 -17.08961101 2.93405218 -12 1 C-7.94055412 0.21659816 -4.12003363 -0.03521396 0 0 Z " fill="#E7ECEC" transform="translate(497,794)"/>
<path d="M0 0 C2.0625 2.1875 2.0625 2.1875 4 5 C3.83083157 8.55253709 3.00047767 9.9992835 1 13 C0.71125 12.360625 0.4225 11.72125 0.125 11.0625 C-0.82823451 8.84793921 -0.82823451 8.84793921 -3 8 C-2.690625 7.236875 -2.38125 6.47375 -2.0625 5.6875 C-1.32106407 3.81210323 -0.63771783 1.91315348 0 0 Z " fill="#19B4BB" transform="translate(592,278)"/>
<path d="M0 0 C1.7074998 1.28062485 3.37373596 2.61767557 5 4 C5 4.66 5 5.32 5 6 C4.34 6 3.68 6 3 6 C2.67 7.32 2.34 8.64 2 10 C1.34 10 0.68 10 0 10 C-1.625 7.5 -1.625 7.5 -3 5 C-2.01 3.35 -1.02 1.7 0 0 Z " fill="#14B2B9" transform="translate(748,506)"/>
<path d="M0 0 C1.32 1.32 2.64 2.64 4 4 C3.34 5.65 2.68 7.3 2 9 C0 8 -2 7 -4 6 C-4 5.34 -4 4.68 -4 4 C-3.34 4 -2.68 4 -2 4 C-1.34 2.68 -0.68 1.36 0 0 Z " fill="#19B3BB" transform="translate(565,528)"/>
<path d="M0 0 C0.66 0 1.32 0 2 0 C3.8125 2.125 3.8125 2.125 5 5 C3.6875 8.3125 3.6875 8.3125 2 11 C-0.125 8.875 -0.125 8.875 -2 6 C-1.25 2.6875 -1.25 2.6875 0 0 Z " fill="#0DB0B8" transform="translate(652,367)"/>
<path d="M0 0 C0.99 0.66 1.98 1.32 3 2 C3 2.66 3 3.32 3 4 C3.66 4.33 4.32 4.66 5 5 C3.68 6.65 2.36 8.3 1 10 C0.71125 9.360625 0.4225 8.72125 0.125 8.0625 C-0.82823451 5.84793921 -0.82823451 5.84793921 -3 5 C-2.01 3.35 -1.02 1.7 0 0 Z " fill="#0CB0B7" transform="translate(508,459)"/>
</svg>
